<svg width="2095" height="335" viewBox="0 0 2095 335" fill="none" xmlns="http://www.w3.org/2000/svg">
<path fill-rule="evenodd" clip-rule="evenodd" d="M378.25 49.883C321.368 49.883 273.816 126.012 273.816 182.894C273.816 239.36 320.675 313.768 377.004 314.853C377.419 314.861 388.225 314.865 388.641 314.865V318.502C388.226 318.502 377.419 318.5 377.004 318.496C341.488 318.17 307.498 303.921 282.36 278.783C256.929 253.352 242.641 218.859 242.641 182.894C242.641 146.928 256.929 112.435 282.36 87.0039C307.792 61.5724 342.284 47.2852 378.25 47.2852V49.883Z" fill="#F1EFE9"/>
<path fill-rule="evenodd" clip-rule="evenodd" d="M376.691 16.1126C337.649 16.1126 299.853 29.8517 269.924 54.9226C239.996 79.9934 219.845 114.797 213.002 153.234L182.31 147.77C198.875 54.7251 282.183 0.00585938 376.691 0.00585938V16.1126Z" fill="#F1EFE9"/>
<path fill-rule="evenodd" clip-rule="evenodd" d="M174.055 193.283C174.055 193.283 176.176 183.772 177.692 175.617C179.717 164.728 182.368 147.561 182.368 147.561L213.023 152.756C213.023 152.756 210.199 171.818 207.827 183.931C206.512 190.648 204.19 201.077 204.19 201.077L174.055 193.283Z" fill="#F1EFE9"/>
<path fill-rule="evenodd" clip-rule="evenodd" d="M12.9865 318.497C50.0548 318.497 86.0599 306.109 115.282 283.303C144.503 260.496 165.266 228.578 174.27 192.62L204.511 200.193C182.771 287.011 102.486 334.604 12.9865 334.604V318.497Z" fill="#F1EFE9"/>
<path fill-rule="evenodd" clip-rule="evenodd" d="M-4.23193e-05 19.7463C0.346693 19.7463 13.1628 19.7492 13.5088 19.7549C69.3634 20.6772 115.865 95.7486 115.865 151.718C115.865 208.033 68.7855 282.65 12.4697 282.65V286.287C48.1597 286.287 82.3879 272.109 107.625 246.872C132.861 221.636 147.039 187.408 147.039 151.718C147.039 116.028 132.861 81.7995 107.625 56.5629C82.6329 31.5713 48.8235 17.4248 13.5088 17.1524C13.1626 17.1498 0.346479 17.1484 -4.23193e-05 17.1484V19.7463Z" fill="#F1EFE9"/>
<path d="M12.425 284.4H15.0229C15.0229 284.4 16.1822 295.093 17.8806 301.806C22.8165 321.315 69.6801 308.68 69.6801 308.68L18.6136 334.415L12.425 334.616V284.4Z" fill="#F1EFE9"/>
<path d="M378.244 49.8789H375.646C375.646 49.8789 374.487 39.1858 372.788 32.4732C367.852 12.9645 320.989 25.5991 320.989 25.5991L372.009 0.519538L378.244 -3.49431e-05V49.8789Z" fill="#F1EFE9"/>
<path d="M465.195 174.419C465.195 218.099 466.007 226.429 467.43 232.524C527.973 227.445 538.537 216.068 538.537 176.857C538.537 138.459 520.455 116.517 478.604 116.517C474.743 116.517 470.883 116.721 467.633 116.924C465.804 123.222 465.195 135.412 465.195 174.419ZM491.809 113.47C533.255 113.47 554.181 135.005 554.181 169.543C554.181 207.535 528.785 235.368 489.778 235.368H429.641V232.93L440.409 231.102C451.38 229.07 451.38 227.648 451.38 176.654C451.38 119.971 451.176 118.752 441.628 117.533L429.641 115.908V113.47H491.809Z" fill="#F1EFE9"/>
<path d="M575.894 192.094C575.894 153.087 575.284 152.071 568.58 151.258L559.031 150.446V148.211C570.815 145.57 580.363 142.116 587.474 138.662L589.1 139.272C589.1 149.227 588.693 160.807 588.49 172.184L589.709 172.388C593.772 153.696 606.978 137.647 625.06 137.24C625.263 142.319 625.669 149.43 625.669 154.509C623.434 154.509 620.387 154.103 617.746 154.103C603.727 154.103 589.709 162.433 589.709 181.733C589.709 228.258 590.522 229.883 595.601 230.493L614.698 232.93V235.368H559.031V232.93L568.783 231.305C575.488 230.086 575.894 228.258 575.894 192.094Z" fill="#F1EFE9"/>
<path d="M681.776 140.694C666.538 140.694 654.552 158.572 649.269 178.889C678.119 171.372 692.543 159.791 692.543 150.446C692.543 145.164 688.683 140.694 681.776 140.694ZM704.936 149.836C704.936 162.026 685.026 174.622 648.863 180.311C647.238 187.015 646.425 193.923 646.425 200.424C646.425 217.896 654.958 226.836 664.913 226.836C677.103 226.836 687.871 215.662 696.607 199.408L698.638 200.627C688.277 222.366 674.665 237.4 657.193 237.4C642.971 237.4 631.188 224.601 631.188 205.097C631.188 173.2 651.707 137.24 688.277 137.24C699.045 137.24 704.936 142.726 704.936 149.836Z" fill="#F1EFE9"/>
<path d="M774.45 220.537C774.45 223.991 775.466 226.023 777.498 226.023C781.561 226.023 787.859 218.912 795.173 205.91L796.595 207.332C788.062 223.991 778.107 237.4 767.949 237.4C763.073 237.4 759.822 233.54 759.822 225.617C759.822 210.176 768.762 177.264 774.247 159.385L773.231 158.979C748.852 215.255 734.224 237.603 719.393 237.603C710.657 237.603 704.562 230.696 704.562 216.068C704.562 179.295 736.459 135.209 793.345 137.85C787.046 157.76 774.45 203.878 774.45 220.537ZM726.3 226.429C735.24 226.429 751.29 209.363 777.904 141.303C738.49 147.195 719.19 186.609 719.19 213.63C719.19 223.382 721.831 226.429 726.3 226.429Z" fill="#F1EFE9"/>
<path d="M896.227 177.467C896.227 228.055 896.836 230.696 903.337 231.508L918.371 232.93V235.368H860.876V232.93L875.707 231.102C882.005 230.086 882.208 227.039 882.208 185.593C882.208 156.134 879.567 148.211 859.86 148.211C844.217 148.211 827.76 156.134 827.76 177.467C827.76 228.461 828.573 229.883 834.261 230.899L850.515 232.93V235.368H797.082V232.93L803.99 231.915C813.539 230.493 813.945 229.274 813.945 191.485C813.945 153.087 813.336 152.071 806.225 151.258L797.082 150.446V148.211C808.866 145.367 818.618 142.116 825.729 138.662L827.354 139.272L826.744 166.496L827.963 166.699C831.824 151.665 846.451 137.647 869.003 137.647C887.49 137.647 895.617 145.976 895.617 165.886V166.496L896.43 166.699C900.29 151.665 915.121 137.647 937.672 137.647C956.973 137.647 965.099 146.179 965.099 162.839C965.099 174.013 964.693 187.219 964.693 198.393C964.693 226.632 965.302 230.289 971.6 231.508L980.336 232.93V235.368H928.936V232.93L944.173 231.102C950.471 230.086 950.675 227.039 950.675 185.593C950.675 156.134 948.033 148.211 928.53 148.211C912.886 148.211 896.227 156.134 896.227 177.467Z" fill="#F1EFE9"/>
<path d="M1058.73 111.641C1074.17 111.641 1084.12 115.298 1090.22 117.33C1089.4 130.333 1088.59 143.945 1088.39 158.369H1085.95L1083.72 143.132C1080.46 122.409 1067.46 115.908 1051.41 115.908C1036.58 115.908 1027.64 123.425 1027.64 136.224C1027.64 149.836 1034.35 157.76 1057.91 166.496C1085.34 176.654 1096.11 184.984 1096.11 201.44C1096.11 219.928 1078.43 237.4 1047.55 237.4C1032.52 237.4 1019.72 231.711 1013.01 227.242C1013.42 216.881 1014.44 203.878 1014.44 188.844H1016.87L1018.7 202.456C1021.95 222.975 1033.53 229.68 1059.74 229.68C1081.07 229.68 1087.17 222.975 1087.17 210.176C1087.17 196.97 1080.06 190.469 1049.79 179.295C1027.03 171.169 1016.47 161.214 1016.47 145.773C1016.47 127.285 1034.14 111.641 1058.73 111.641Z" fill="#F1EFE9"/>
<path d="M1202.33 177.467C1202.33 228.055 1202.94 230.696 1209.44 231.508L1224.47 232.93V235.368H1166.98V232.93L1181.81 231.102C1188.11 230.086 1188.31 227.039 1188.31 185.593C1188.31 156.134 1185.67 148.211 1165.96 148.211C1150.32 148.211 1133.86 156.134 1133.86 177.467C1133.86 228.461 1134.68 229.883 1140.36 230.899L1156.62 232.93V235.368H1103.19V232.93L1110.09 231.915C1119.64 230.493 1120.05 229.274 1120.05 191.485C1120.05 153.087 1119.44 152.071 1112.33 151.258L1103.19 150.446V148.211C1114.97 145.367 1124.72 142.116 1131.83 138.662L1133.46 139.272L1132.85 166.496L1134.07 166.699C1137.93 151.665 1152.55 137.647 1175.11 137.647C1193.59 137.647 1201.72 145.976 1201.72 165.886V166.496L1202.53 166.699C1206.39 151.665 1221.22 137.647 1243.78 137.647C1263.08 137.647 1271.2 146.179 1271.2 162.839C1271.2 174.013 1270.8 187.219 1270.8 198.393C1270.8 226.632 1271.41 230.289 1277.7 231.508L1286.44 232.93V235.368H1235.04V232.93L1250.28 231.102C1256.57 230.086 1256.78 227.039 1256.78 185.593C1256.78 156.134 1254.14 148.211 1234.63 148.211C1218.99 148.211 1202.33 156.134 1202.33 177.467Z" fill="#F1EFE9"/>
<path d="M1305.69 119.768C1299.59 119.768 1295.73 116.721 1295.73 111.032C1295.73 104.124 1300.81 100.874 1308.53 100.874C1314.63 100.874 1318.49 103.718 1318.49 109.407C1318.49 116.314 1313.41 119.768 1305.69 119.768ZM1315.84 178.686C1315.84 228.664 1316.66 229.883 1322.14 230.899L1333.11 232.93V235.368H1285.17V232.93L1292.68 231.712C1301.62 230.289 1301.83 229.274 1301.83 191.282C1301.83 153.087 1301.42 152.071 1294.31 151.258L1285.17 150.446V148.211C1297.76 145.164 1306.7 142.116 1314.42 138.459L1316.05 139.069C1316.05 153.9 1315.84 165.074 1315.84 178.686Z" fill="#F1EFE9"/>
<path d="M1349.1 188.031C1349.1 113.47 1348.69 112.251 1341.58 111.032L1332.23 109.813V107.578C1351.33 104.531 1357.02 102.296 1361.29 97.0137L1363.32 97.2169C1363.12 119.362 1363.12 140.694 1363.12 162.839C1363.12 228.258 1363.12 229.07 1368.8 230.696L1380.38 232.93V235.368H1332.03V232.93L1340.36 231.712C1349.1 230.289 1349.1 229.07 1349.1 188.031Z" fill="#F1EFE9"/>
<path d="M1433.77 140.694C1418.53 140.694 1406.54 158.572 1401.26 178.889C1430.11 171.372 1444.54 159.791 1444.54 150.446C1444.54 145.164 1440.68 140.694 1433.77 140.694ZM1456.93 149.836C1456.93 162.026 1437.02 174.622 1400.86 180.311C1399.23 187.015 1398.42 193.923 1398.42 200.424C1398.42 217.896 1406.95 226.836 1416.91 226.836C1429.1 226.836 1439.86 215.662 1448.6 199.408L1450.63 200.627C1440.27 222.366 1426.66 237.4 1409.19 237.4C1394.96 237.4 1383.18 224.601 1383.18 205.097C1383.18 173.2 1403.7 137.24 1440.27 137.24C1451.04 137.24 1456.93 142.726 1456.93 149.836Z" fill="#F1EFE9"/>
<path d="M1500.44 137.24C1514.25 137.24 1522.79 140.288 1528.27 142.319C1527.46 152.071 1526.85 164.261 1526.85 175.029H1524.41L1522.38 162.636C1519.54 146.789 1508.56 141.1 1493.94 141.1C1481.75 141.1 1473.62 147.805 1473.62 157.353C1473.62 169.543 1483.37 174.622 1499.63 179.498C1518.32 185.39 1532.74 192.094 1532.74 208.348C1532.74 222.975 1517.91 237.4 1490.89 237.4C1477.48 237.4 1466.71 232.93 1460.82 229.274C1461.43 221.35 1461.84 210.989 1462.04 198.393H1464.48L1466.1 209.363C1468.95 225.617 1479.92 230.899 1501.25 230.899C1519.13 230.899 1524.41 225.413 1524.41 216.068C1524.41 203.269 1511.61 198.596 1492.51 192.704C1474.23 186.812 1463.26 179.905 1463.26 165.48C1463.26 150.243 1478.9 137.24 1500.44 137.24Z" fill="#F1EFE9"/>
<path d="M1601.57 174.419C1601.57 218.099 1602.39 226.429 1603.81 232.524C1664.35 227.445 1674.92 216.068 1674.92 176.857C1674.92 138.459 1656.83 116.517 1614.98 116.517C1611.12 116.517 1607.26 116.721 1604.01 116.924C1602.18 123.222 1601.57 135.412 1601.57 174.419ZM1628.19 113.47C1669.63 113.47 1690.56 135.005 1690.56 169.543C1690.56 207.535 1665.16 235.368 1626.16 235.368H1566.02V232.93L1576.79 231.102C1587.76 229.07 1587.76 227.648 1587.76 176.654C1587.76 119.971 1587.55 118.752 1578.01 117.533L1566.02 115.908V113.47H1628.19Z" fill="#F1EFE9"/>
<path d="M1749.45 140.694C1734.21 140.694 1722.23 158.572 1716.94 178.889C1745.79 171.372 1760.22 159.791 1760.22 150.446C1760.22 145.164 1756.36 140.694 1749.45 140.694ZM1772.61 149.836C1772.61 162.026 1752.7 174.622 1716.54 180.311C1714.91 187.015 1714.1 193.923 1714.1 200.424C1714.1 217.896 1722.63 226.836 1732.59 226.836C1744.78 226.836 1755.55 215.662 1764.28 199.408L1766.31 200.627C1755.95 222.366 1742.34 237.4 1724.87 237.4C1710.65 237.4 1698.86 224.601 1698.86 205.097C1698.86 173.2 1719.38 137.24 1755.95 137.24C1766.72 137.24 1772.61 142.726 1772.61 149.836Z" fill="#F1EFE9"/>
<path d="M1801.29 138.662L1802.91 139.272L1802.31 166.496L1803.52 166.699C1807.38 151.665 1822.22 137.647 1844.56 137.647C1864.07 137.647 1872.19 146.179 1872.19 162.839C1872.19 174.013 1871.79 187.219 1871.79 198.393C1871.79 226.632 1872.4 230.289 1878.7 231.508L1887.43 232.93V235.368H1836.03V232.93L1851.27 231.102C1857.57 230.086 1857.77 227.039 1857.77 185.593C1857.77 156.134 1855.13 148.211 1835.42 148.211C1819.78 148.211 1803.32 156.134 1803.32 177.467C1803.32 228.461 1804.13 230.086 1809.82 230.899L1826.08 232.93V235.368H1772.64V232.93L1779.55 231.915C1789.1 230.493 1789.51 229.477 1789.51 191.485C1789.51 153.087 1788.9 152.071 1781.79 151.258L1772.64 150.446V148.211C1784.43 145.367 1794.18 142.116 1801.29 138.662Z" fill="#F1EFE9"/>
<path d="M1950.81 195.548C1947.15 224.601 1938.42 237.4 1921.76 237.4C1904.29 237.4 1899 227.242 1899 213.63C1899 207.129 1899.82 195.751 1899.82 185.593C1899.82 171.981 1899.82 161.01 1899 148.617C1893.72 148.617 1888.44 148.617 1883.16 148.821V146.789C1902.86 142.116 1905.91 139.881 1912.82 119.768L1914.85 120.174C1914.24 126.066 1913.83 132.567 1913.63 139.678H1951.83L1948.37 149.633C1936.79 149.024 1925.21 148.617 1913.43 148.414C1913.23 159.385 1913.22 170.965 1913.22 182.139C1913.22 191.485 1913.22 201.237 1913.63 210.582C1914.44 222.366 1919.73 226.836 1929.27 226.836C1941.87 226.836 1945.32 215.662 1948.58 195.345L1950.81 195.548Z" fill="#F1EFE9"/>
<path d="M2024.57 220.537C2024.57 223.991 2025.58 226.023 2027.62 226.023C2031.68 226.023 2037.98 218.912 2045.29 205.91L2046.71 207.332C2038.18 223.991 2028.23 237.4 2018.07 237.4C2013.19 237.4 2009.94 233.54 2009.94 225.617C2009.94 210.176 2018.88 177.264 2024.37 159.385L2023.35 158.979C1998.97 215.255 1984.34 237.603 1969.51 237.603C1960.77 237.603 1954.68 230.696 1954.68 216.068C1954.68 179.295 1986.58 135.209 2043.46 137.85C2037.16 157.76 2024.57 203.878 2024.57 220.537ZM1976.42 226.429C1985.36 226.429 2001.41 209.363 2028.02 141.303C1988.61 147.195 1969.31 186.609 1969.31 213.63C1969.31 223.382 1971.95 226.429 1976.42 226.429Z" fill="#F1EFE9"/>
<path d="M2063.25 188.031C2063.25 113.47 2062.84 112.251 2055.73 111.032L2046.39 109.813V107.578C2065.49 104.531 2071.17 102.296 2075.44 97.0137L2077.47 97.2169C2077.27 119.362 2077.27 140.694 2077.27 162.839C2077.27 228.258 2077.27 229.07 2082.96 230.696L2094.54 232.93V235.368H2046.18V232.93L2054.51 231.712C2063.25 230.289 2063.25 229.07 2063.25 188.031Z" fill="#F1EFE9"/>
</svg>
